<?xml version="1.0" encoding="utf-8"?>
<!-- Generator: Adobe Illustrator 18.0.0, SVG Export Plug-In . SVG Version: 6.00 Build 0)  -->
<!DOCTYPE svg PUBLIC "-//W3C//DTD SVG 1.1//EN" "http://www.w3.org/Graphics/SVG/1.1/DTD/svg11.dtd">
<svg version="1.1" id="Layer_1" xmlns="http://www.w3.org/2000/svg" xmlns:xlink="http://www.w3.org/1999/xlink" x="0px" y="0px"
	 viewBox="0 0 452 100" enable-background="new 0 0 452 100" xml:space="preserve">
<g>
	<g>
		<path fill="#606061" d="M97.995,50l-15-27H28.764c-3.186,0-5.769,2.59-5.769,5.786v42.428c0,3.195,2.583,5.786,5.769,5.786h54.231
			L97.995,50z"/>
		<path fill="#BA1F40" d="M96.496,25.815C95.44,24.069,93.536,23,91.481,23h-4.485l15.201,27L86.995,77h4.486
			c2.055,0,3.96-1.069,5.015-2.815L109.995,50L96.496,25.815z"/>
	</g>
	<g>
		<rect x="54.995" y="38" fill="#FFFFFF" width="4" height="24"/>
		<polygon fill="#FFFFFF" points="46.995,38 46.995,55.6 35.995,38 31.995,38 31.995,62 35.995,62 35.995,44.4 46.995,62 50.995,62 
			50.995,38 		"/>
		<polygon fill="#FFFFFF" points="77.995,38 77.995,48 66.995,48 66.995,38 62.995,38 62.995,62 66.995,62 66.995,52 77.995,52 
			77.995,62 81.995,62 81.995,38 		"/>
	</g>
</g>
<g>
	<g>
		<path fill="#BB0E3D" d="M130.849,31h2.495v11.184h-2.495l-5.328-7.008v7.008h-2.496V31h2.336l5.488,7.2V31z"/>
		<path fill="#BB0E3D" d="M144.064,42.184l-1.04-2.416h-4.688l-1.04,2.416h-2.656L139.472,31h2.416l4.832,11.184H144.064z
			 M140.688,34.327l-1.407,3.248h2.8L140.688,34.327z"/>
		<path fill="#BB0E3D" d="M151.936,33.159v9.025h-2.495v-9.025h-3.168V31h8.831v2.159H151.936z"/>
		<path fill="#BB0E3D" d="M156.928,31h2.496v11.184h-2.496V31z"/>
		<path fill="#BB0E3D" d="M171.584,40.64c-1.131,1.104-2.522,1.656-4.176,1.656s-3.046-0.553-4.176-1.656
			c-1.131-1.104-1.696-2.478-1.696-4.121c0-1.643,0.565-3.016,1.696-4.12c1.13-1.104,2.522-1.656,4.176-1.656
			s3.045,0.553,4.176,1.656c1.131,1.104,1.696,2.478,1.696,4.12C173.28,38.162,172.715,39.535,171.584,40.64z M170.736,36.527
			c0-0.997-0.32-1.848-0.96-2.552c-0.641-0.704-1.427-1.056-2.36-1.056s-1.72,0.352-2.36,1.056c-0.64,0.704-0.96,1.555-0.96,2.552
			c0,0.998,0.32,1.846,0.96,2.544c0.641,0.699,1.427,1.048,2.36,1.048s1.72-0.349,2.36-1.048
			C170.416,38.373,170.736,37.525,170.736,36.527z"/>
		<path fill="#BB0E3D" d="M183.216,31h2.496v11.184h-2.496l-5.328-7.008v7.008h-2.496V31h2.336l5.488,7.2V31z"/>
		<path fill="#BB0E3D" d="M196.432,42.184l-1.04-2.416h-4.688l-1.04,2.416h-2.656L191.84,31h2.416l4.832,11.184H196.432z
			 M193.056,34.327l-1.408,3.248h2.8L193.056,34.327z"/>
		<path fill="#BB0E3D" d="M200.384,42.184V31h2.496v8.96h4.768v2.224H200.384z"/>
		<path fill="#BB0E3D" d="M218.832,39.976c1.226,0,2.229-0.485,3.008-1.456l1.6,1.648c-1.27,1.429-2.766,2.144-4.488,2.144
			s-3.141-0.544-4.256-1.632c-1.114-1.088-1.672-2.461-1.672-4.121c0-1.658,0.568-3.042,1.704-4.152
			c1.136-1.108,2.525-1.664,4.168-1.664c1.835,0,3.37,0.699,4.608,2.097l-1.553,1.76c-0.789-0.981-1.771-1.472-2.943-1.472
			c-0.939,0-1.742,0.307-2.408,0.92c-0.667,0.613-1,1.439-1,2.479s0.314,1.875,0.944,2.504
			C217.173,39.661,217.936,39.976,218.832,39.976z"/>
		<path fill="#BB0E3D" d="M233.296,42.184l-1.04-2.416h-4.688l-1.04,2.416h-2.656L228.704,31h2.416l4.832,11.184H233.296z
			 M229.92,34.327l-1.408,3.248h2.8L229.92,34.327z"/>
		<path fill="#BB0E3D" d="M245.072,31h2.495v11.184h-2.495l-5.328-7.008v7.008h-2.496V31h2.336l5.488,7.2V31z"/>
		<path fill="#BB0E3D" d="M255.455,39.976c1.227,0,2.229-0.485,3.008-1.456l1.601,1.648c-1.27,1.429-2.766,2.144-4.488,2.144
			s-3.142-0.544-4.256-1.632c-1.115-1.088-1.672-2.461-1.672-4.121c0-1.658,0.567-3.042,1.704-4.152
			c1.136-1.108,2.524-1.664,4.168-1.664c1.834,0,3.37,0.699,4.607,2.097l-1.552,1.76c-0.79-0.981-1.771-1.472-2.944-1.472
			c-0.938,0-1.741,0.307-2.408,0.92c-0.666,0.613-1,1.439-1,2.479s0.315,1.875,0.944,2.504
			C253.796,39.661,254.56,39.976,255.455,39.976z"/>
		<path fill="#BB0E3D" d="M270.095,31v2.224h-5.567v2.304h5.008v2.128h-5.008v2.321h5.744v2.208h-8.24V31H270.095z"/>
		<path fill="#BB0E3D" d="M281.567,34.711c0,1.792-0.71,2.949-2.129,3.472l2.832,4h-3.071l-2.48-3.568h-1.728v3.568h-2.496V31h4.24
			c1.738,0,2.979,0.293,3.72,0.88S281.567,33.41,281.567,34.711z M278.559,36.04c0.31-0.277,0.464-0.718,0.464-1.32
			s-0.159-1.017-0.479-1.24s-0.88-0.336-1.68-0.336h-1.872v3.312h1.823C277.668,36.456,278.249,36.317,278.559,36.04z"/>
		<path fill="#BB0E3D" d="M288.352,31h2.496v11.184h-2.496V31z"/>
		<path fill="#BB0E3D" d="M301.424,31h2.495v11.184h-2.495l-5.328-7.008v7.008H293.6V31h2.336l5.488,7.2V31z"/>
		<path fill="#BB0E3D" d="M309.287,33.231c-0.24,0.197-0.36,0.459-0.36,0.784s0.146,0.584,0.439,0.776
			c0.294,0.191,0.971,0.418,2.032,0.68s1.886,0.653,2.473,1.176c0.586,0.522,0.88,1.285,0.88,2.289c0,1.003-0.376,1.816-1.128,2.44
			s-1.742,0.936-2.969,0.936c-1.771,0-3.365-0.656-4.783-1.968l1.487-1.824c1.205,1.056,2.32,1.584,3.345,1.584
			c0.458,0,0.818-0.099,1.079-0.296c0.262-0.197,0.393-0.464,0.393-0.8s-0.139-0.603-0.416-0.8s-0.827-0.398-1.648-0.601
			c-1.301-0.309-2.253-0.712-2.855-1.208s-0.904-1.274-0.904-2.336s0.381-1.88,1.145-2.456c0.762-0.576,1.714-0.864,2.855-0.864
			c0.747,0,1.493,0.129,2.24,0.385c0.746,0.256,1.397,0.618,1.952,1.088l-1.265,1.824c-0.971-0.736-1.973-1.104-3.008-1.104
			C309.854,32.935,309.526,33.034,309.287,33.231z"/>
		<path fill="#BB0E3D" d="M321.519,33.159v9.025h-2.496v-9.025h-3.168V31h8.832v2.159H321.519z"/>
		<path fill="#BB0E3D" d="M326.51,31h2.496v11.184h-2.496V31z"/>
		<path fill="#BB0E3D" d="M336.494,33.159v9.025h-2.496v-9.025h-3.168V31h8.832v2.159H336.494z"/>
		<path fill="#BB0E3D" d="M344.445,39.296c0.416,0.518,0.977,0.775,1.681,0.775s1.261-0.258,1.672-0.775
			c0.41-0.518,0.616-1.225,0.616-2.121V31h2.495v6.256c0,1.622-0.447,2.867-1.344,3.736c-0.896,0.87-2.043,1.305-3.439,1.305
			c-1.397,0-2.547-0.438-3.448-1.312c-0.901-0.874-1.353-2.117-1.353-3.728V31h2.496v6.176
			C343.821,38.071,344.029,38.778,344.445,39.296z"/>
		<path fill="#BB0E3D" d="M358.237,33.159v9.025h-2.496v-9.025h-3.168V31h8.832v2.159H358.237z"/>
		<path fill="#BB0E3D" d="M371.293,31v2.224h-5.568v2.304h5.008v2.128h-5.008v2.321h5.744v2.208h-8.24V31H371.293z"/>
	</g>
</g>
<g>
	<g>
		<path fill="#606060" d="M135.344,66.994c-1.484,1.449-3.311,2.174-5.481,2.174s-3.997-0.725-5.481-2.174s-2.226-3.252-2.226-5.407
			c0-2.156,0.742-3.959,2.226-5.408c1.484-1.448,3.311-2.173,5.481-2.173s3.997,0.725,5.481,2.173
			c1.484,1.449,2.226,3.252,2.226,5.408C137.57,63.742,136.828,65.545,135.344,66.994z M134.231,61.597
			c0-1.309-0.42-2.425-1.26-3.35c-0.84-0.924-1.873-1.386-3.097-1.386c-1.225,0-2.258,0.462-3.098,1.386
			c-0.84,0.925-1.26,2.041-1.26,3.35c0,1.31,0.42,2.423,1.26,3.339c0.84,0.918,1.873,1.376,3.098,1.376
			c1.225,0,2.257-0.458,3.097-1.376C133.812,64.02,134.231,62.906,134.231,61.597z"/>
		<path fill="#606060" d="M143.682,57.071v0.756h2.73v2.269h-2.73v8.925h-3.171v-8.925h-1.323v-2.269h1.323v-0.692
			c0-1.232,0.375-2.209,1.124-2.93c0.749-0.721,1.68-1.082,2.793-1.082c1.113,0,2.124,0.421,3.034,1.261l-1.134,2.121
			c-0.462-0.532-0.973-0.799-1.533-0.799c-0.322,0-0.588,0.116-0.798,0.347C143.787,56.284,143.682,56.624,143.682,57.071z"/>
		<path fill="#606060" d="M152.123,57.071v0.756h2.73v2.269h-2.73v8.925h-3.171v-8.925h-1.323v-2.269h1.323v-0.692
			c0-1.232,0.375-2.209,1.124-2.93c0.749-0.721,1.68-1.082,2.793-1.082c1.113,0,2.124,0.421,3.034,1.261l-1.134,2.121
			c-0.462-0.532-0.973-0.799-1.533-0.799c-0.322,0-0.588,0.116-0.798,0.347C152.228,56.284,152.123,56.624,152.123,57.071z"/>
		<path fill="#606060" d="M157.068,56.284c-0.357-0.357-0.536-0.795-0.536-1.312s0.179-0.956,0.536-1.312
			c0.357-0.357,0.794-0.536,1.312-0.536s0.956,0.179,1.312,0.536c0.357,0.356,0.536,0.795,0.536,1.312s-0.179,0.955-0.536,1.312
			c-0.357,0.356-0.794,0.535-1.312,0.535S157.425,56.641,157.068,56.284z M159.956,69.021h-3.15V57.723h3.15V69.021z"/>
		<path fill="#606060" d="M168.356,66.396c1.05,0,1.995-0.525,2.835-1.575l1.869,2.101c-1.456,1.512-3.031,2.268-4.725,2.268
			c-1.694,0-3.126-0.535-4.295-1.606s-1.753-2.471-1.753-4.2c0-1.729,0.591-3.136,1.774-4.221s2.586-1.628,4.211-1.628
			c0.812,0,1.634,0.168,2.467,0.504s1.564,0.834,2.194,1.491l-1.638,2.143c-0.364-0.435-0.809-0.771-1.333-1.009
			c-0.525-0.237-1.047-0.356-1.564-0.356c-0.826,0-1.537,0.27-2.132,0.809s-0.893,1.288-0.893,2.247s0.297,1.704,0.893,2.236
			S167.558,66.396,168.356,66.396z"/>
		<path fill="#606060" d="M184.945,67.383c-1.274,1.204-2.769,1.806-4.483,1.806s-3.132-0.528-4.252-1.586
			c-1.12-1.057-1.68-2.474-1.68-4.252s0.57-3.192,1.711-4.242s2.489-1.575,4.043-1.575c1.554,0,2.873,0.47,3.958,1.407
			c1.084,0.938,1.627,2.227,1.627,3.864v1.68h-8.232c0.098,0.616,0.42,1.12,0.966,1.512c0.546,0.393,1.162,0.589,1.848,0.589
			c1.105,0,2.016-0.371,2.73-1.113L184.945,67.383z M181.921,60.684c-0.434-0.364-0.963-0.546-1.585-0.546
			c-0.623,0-1.194,0.188-1.711,0.566c-0.518,0.378-0.819,0.89-0.903,1.533h4.956C182.607,61.565,182.355,61.048,181.921,60.684z"/>
		<path fill="#606060" d="M204.979,63.371c0,1.639-0.567,3.018-1.701,4.138c-1.134,1.12-2.559,1.68-4.273,1.68
			s-3.14-0.56-4.273-1.68s-1.701-2.499-1.701-4.138c0-1.638,0.567-3.02,1.701-4.147c1.134-1.126,2.559-1.69,4.273-1.69
			s3.14,0.564,4.273,1.69C204.413,60.352,204.979,61.733,204.979,63.371z M196.202,63.371c0,0.925,0.262,1.677,0.787,2.258
			c0.525,0.581,1.197,0.872,2.016,0.872s1.491-0.291,2.016-0.872s0.788-1.333,0.788-2.258c0-0.924-0.263-1.68-0.788-2.268
			s-1.197-0.882-2.016-0.882s-1.491,0.294-2.016,0.882C196.464,61.691,196.202,62.447,196.202,63.371z"/>
		<path fill="#606060" d="M210.88,57.071v0.756h2.73v2.269h-2.73v8.925h-3.171v-8.925h-1.323v-2.269h1.323v-0.692
			c0-1.232,0.375-2.209,1.124-2.93c0.749-0.721,1.68-1.082,2.793-1.082c1.113,0,2.124,0.421,3.034,1.261l-1.134,2.121
			c-0.462-0.532-0.973-0.799-1.533-0.799c-0.322,0-0.588,0.116-0.798,0.347C210.985,56.284,210.88,56.624,210.88,57.071z"/>
		<path fill="#606060" d="M231.88,69.021l-1.365-3.171h-6.153l-1.365,3.171h-3.486l6.342-14.679h3.171l6.342,14.679H231.88z
			 M227.449,58.71l-1.848,4.263h3.675L227.449,58.71z"/>
		<path fill="#606060" d="M241.005,69.188c-1.337,0-2.531-0.567-3.581-1.701s-1.575-2.541-1.575-4.221s0.511-3.056,1.533-4.127
			c1.022-1.07,2.219-1.606,3.591-1.606s2.492,0.483,3.36,1.449v-5.544h3.15v15.582h-3.15v-1.491
			C243.451,68.636,242.342,69.188,241.005,69.188z M239.021,63.393c0,0.91,0.273,1.655,0.819,2.236s1.183,0.872,1.911,0.872
			c0.728,0,1.347-0.291,1.858-0.872c0.511-0.581,0.767-1.33,0.767-2.247s-0.256-1.68-0.767-2.289
			c-0.511-0.608-1.138-0.913-1.879-0.913c-0.742,0-1.379,0.308-1.911,0.924C239.286,61.72,239.021,62.482,239.021,63.393z"/>
		<path fill="#606060" d="M253.51,69.021l-4.473-11.319h3.276l2.814,7.119l2.814-7.119h3.276l-4.473,11.319H253.51z"/>
		<path fill="#606060" d="M273.817,63.371c0,1.639-0.567,3.018-1.701,4.138c-1.134,1.12-2.559,1.68-4.273,1.68
			s-3.14-0.56-4.273-1.68s-1.701-2.499-1.701-4.138c0-1.638,0.567-3.02,1.701-4.147c1.134-1.126,2.559-1.69,4.273-1.69
			s3.14,0.564,4.273,1.69C273.25,60.352,273.817,61.733,273.817,63.371z M265.04,63.371c0,0.925,0.262,1.677,0.787,2.258
			c0.525,0.581,1.197,0.872,2.016,0.872s1.491-0.291,2.016-0.872s0.788-1.333,0.788-2.258c0-0.924-0.263-1.68-0.788-2.268
			s-1.197-0.882-2.016-0.882s-1.491,0.294-2.016,0.882C265.302,61.691,265.04,62.447,265.04,63.371z"/>
		<path fill="#606060" d="M281.566,66.396c1.05,0,1.995-0.525,2.835-1.575l1.869,2.101c-1.456,1.512-3.031,2.268-4.725,2.268
			c-1.694,0-3.126-0.535-4.295-1.606s-1.753-2.471-1.753-4.2c0-1.729,0.591-3.136,1.774-4.221s2.586-1.628,4.211-1.628
			c0.812,0,1.634,0.168,2.467,0.504s1.564,0.834,2.194,1.491l-1.638,2.143c-0.364-0.435-0.809-0.771-1.333-1.009
			c-0.525-0.237-1.047-0.356-1.564-0.356c-0.826,0-1.537,0.27-2.132,0.809s-0.893,1.288-0.893,2.247s0.297,1.704,0.893,2.236
			S280.768,66.396,281.566,66.396z"/>
		<path fill="#606060" d="M297.966,69.021h-2.961v-1.365c-0.812,1.022-1.816,1.533-3.014,1.533c-1.197,0-2.202-0.347-3.013-1.039
			c-0.812-0.693-1.218-1.617-1.218-2.772s0.42-2.02,1.26-2.594c0.84-0.573,1.988-0.86,3.444-0.86h2.352v-0.063
			c0-1.204-0.637-1.806-1.911-1.806c-0.546,0-1.124,0.108-1.732,0.325c-0.609,0.218-1.124,0.486-1.543,0.809l-1.407-2.037
			c1.483-1.078,3.178-1.617,5.082-1.617c1.372,0,2.492,0.344,3.36,1.029c0.868,0.687,1.302,1.771,1.302,3.255V69.021z
			 M294.795,64.716V64.17h-1.974c-1.26,0-1.89,0.392-1.89,1.176c0,0.406,0.15,0.718,0.451,0.935
			c0.301,0.217,0.731,0.325,1.292,0.325s1.053-0.171,1.48-0.515C294.582,65.748,294.795,65.29,294.795,64.716z"/>
		<path fill="#606060" d="M306.262,66.396c1.05,0,1.995-0.525,2.835-1.575l1.869,2.101c-1.456,1.512-3.031,2.268-4.725,2.268
			c-1.694,0-3.126-0.535-4.295-1.606s-1.753-2.471-1.753-4.2c0-1.729,0.591-3.136,1.774-4.221s2.586-1.628,4.211-1.628
			c0.812,0,1.634,0.168,2.467,0.504s1.564,0.834,2.194,1.491l-1.638,2.143c-0.364-0.435-0.809-0.771-1.333-1.009
			c-0.525-0.237-1.047-0.356-1.564-0.356c-0.826,0-1.537,0.27-2.132,0.809s-0.893,1.288-0.893,2.247s0.297,1.704,0.893,2.236
			S305.463,66.396,306.262,66.396z"/>
		<path fill="#606060" d="M315.018,73.473c-1.106,0-2.149-0.448-3.129-1.344l1.428-2.331c0.532,0.518,1.078,0.776,1.638,0.776
			c0.294,0,0.546-0.144,0.756-0.431c0.21-0.287,0.315-0.591,0.315-0.913s-1.457-4.158-4.368-11.508h3.36l2.751,7.035l2.751-7.035
			h3.36l-5.25,13.313c-0.308,0.771-0.788,1.369-1.438,1.796C316.541,73.259,315.816,73.473,315.018,73.473z"/>
		<path fill="#606060" d="M343.221,59.214c0,2.352-0.931,3.871-2.793,4.557l3.717,5.25h-4.032l-3.255-4.683h-2.268v4.683h-3.276
			V54.342h5.565c2.282,0,3.909,0.385,4.882,1.154C342.734,56.267,343.221,57.506,343.221,59.214z M339.273,60.956
			c0.406-0.363,0.609-0.941,0.609-1.732c0-0.79-0.21-1.333-0.63-1.627s-1.155-0.441-2.205-0.441h-2.457v4.348h2.394
			C338.104,61.503,338.867,61.32,339.273,60.956z"/>
		<path fill="#606060" d="M356.051,67.383c-1.274,1.204-2.769,1.806-4.483,1.806s-3.132-0.528-4.252-1.586
			c-1.12-1.057-1.68-2.474-1.68-4.252s0.57-3.192,1.711-4.242s2.489-1.575,4.043-1.575c1.554,0,2.873,0.47,3.958,1.407
			c1.084,0.938,1.627,2.227,1.627,3.864v1.68h-8.232c0.098,0.616,0.42,1.12,0.966,1.512c0.546,0.393,1.162,0.589,1.848,0.589
			c1.105,0,2.016-0.371,2.73-1.113L356.051,67.383z M353.027,60.684c-0.434-0.364-0.963-0.546-1.585-0.546
			c-0.623,0-1.194,0.188-1.711,0.566c-0.518,0.378-0.819,0.89-0.903,1.533h4.956C353.713,61.565,353.461,61.048,353.027,60.684z"/>
		<path fill="#606060" d="M362.394,69.021h-3.15V53.438h3.15V69.021z"/>
		<path fill="#606060" d="M374.972,69.021h-2.961v-1.365c-0.812,1.022-1.816,1.533-3.014,1.533c-1.197,0-2.202-0.347-3.013-1.039
			c-0.812-0.693-1.218-1.617-1.218-2.772s0.42-2.02,1.26-2.594c0.84-0.573,1.988-0.86,3.444-0.86h2.352v-0.063
			c0-1.204-0.637-1.806-1.911-1.806c-0.546,0-1.124,0.108-1.732,0.325c-0.609,0.218-1.124,0.486-1.543,0.809l-1.407-2.037
			c1.483-1.078,3.178-1.617,5.082-1.617c1.372,0,2.492,0.344,3.36,1.029c0.868,0.687,1.302,1.771,1.302,3.255V69.021z
			 M371.801,64.716V64.17h-1.974c-1.26,0-1.89,0.392-1.89,1.176c0,0.406,0.15,0.718,0.451,0.935
			c0.301,0.217,0.731,0.325,1.292,0.325s1.053-0.171,1.48-0.515C371.588,65.748,371.801,65.29,371.801,64.716z"/>
		<path fill="#606060" d="M381.482,59.99v5.062c0,0.434,0.112,0.773,0.336,1.019c0.224,0.245,0.49,0.367,0.798,0.367
			c0.588,0,1.085-0.266,1.491-0.798l1.176,2.205c-0.98,0.896-2.013,1.344-3.097,1.344c-1.085,0-2.002-0.357-2.751-1.071
			c-0.749-0.714-1.124-1.687-1.124-2.919V59.99h-1.323v-2.268h1.323v-3.381h3.171v3.381h2.73v2.268H381.482z"/>
		<path fill="#606060" d="M387.226,56.284c-0.357-0.357-0.536-0.795-0.536-1.312s0.179-0.956,0.536-1.312
			c0.357-0.357,0.794-0.536,1.312-0.536s0.956,0.179,1.312,0.536c0.357,0.356,0.536,0.795,0.536,1.312s-0.179,0.955-0.536,1.312
			c-0.357,0.356-0.794,0.535-1.312,0.535S387.583,56.641,387.226,56.284z M390.113,69.021h-3.15V57.723h3.15V69.021z"/>
		<path fill="#606060" d="M404.393,63.371c0,1.639-0.566,3.018-1.701,4.138c-1.133,1.12-2.559,1.68-4.273,1.68
			s-3.139-0.56-4.273-1.68c-1.133-1.12-1.701-2.499-1.701-4.138c0-1.638,0.568-3.02,1.701-4.147c1.135-1.126,2.559-1.69,4.273-1.69
			s3.141,0.564,4.273,1.69C403.826,60.352,404.393,61.733,404.393,63.371z M395.615,63.371c0,0.925,0.262,1.677,0.787,2.258
			s1.197,0.872,2.016,0.872c0.82,0,1.492-0.291,2.016-0.872c0.525-0.581,0.789-1.333,0.789-2.258c0-0.924-0.264-1.68-0.789-2.268
			c-0.523-0.588-1.195-0.882-2.016-0.882c-0.818,0-1.49,0.294-2.016,0.882S395.615,62.447,395.615,63.371z"/>
		<path fill="#606060" d="M409.873,62.721v6.3h-3.149V57.723h3.149v1.26c0.952-0.966,2.023-1.449,3.213-1.449
			c1.19,0,2.188,0.42,2.993,1.261c0.805,0.84,1.207,1.96,1.207,3.359v6.867h-3.149v-6.384c0-1.736-0.638-2.604-1.911-2.604
			c-0.63,0-1.18,0.228-1.648,0.683C410.107,61.17,409.873,61.839,409.873,62.721z"/>
		<path fill="#606060" d="M428.647,65.503c0,1.113-0.409,2.006-1.229,2.678s-1.858,1.008-3.118,1.008
			c-0.841,0-1.716-0.15-2.625-0.451c-0.91-0.301-1.729-0.746-2.457-1.334l1.386-1.974c1.176,0.91,2.429,1.365,3.759,1.365
			c0.406,0,0.728-0.081,0.966-0.242c0.238-0.16,0.357-0.374,0.357-0.641c0-0.266-0.165-0.511-0.494-0.734s-0.805-0.434-1.428-0.63
			s-1.099-0.364-1.428-0.504c-0.329-0.141-0.703-0.344-1.124-0.609c-0.854-0.532-1.28-1.319-1.28-2.362s0.42-1.894,1.26-2.552
			s1.925-0.987,3.255-0.987s2.66,0.448,3.99,1.345l-1.176,2.1c-0.98-0.672-1.957-1.008-2.93-1.008c-0.974,0-1.46,0.266-1.46,0.798
			c0,0.294,0.154,0.525,0.462,0.693c0.309,0.168,0.819,0.364,1.533,0.588s1.222,0.396,1.522,0.515
			c0.301,0.118,0.662,0.304,1.082,0.556C428.255,63.596,428.647,64.39,428.647,65.503z"/>
	</g>
</g>
</svg>
